<svg width="64" height="65" viewBox="0 0 64 65" fill="none" xmlns="http://www.w3.org/2000/svg">
<path d="M45.8781 28.9193L51.9222 22.7987C52.6409 23.0372 53.3939 23.1987 54.1911 23.1987H56.6441C60.7086 23.1987 64.003 19.8626 64.003 15.7466C64.003 11.6307 60.7086 8.29464 56.6441 8.29464H55.8395V7.4774C55.8395 3.36141 52.5452 0.0253906 48.4807 0.0253906C44.4161 0.0253906 41.1218 3.36141 41.1218 7.4774V9.9614C41.1218 10.7687 41.2812 11.5313 41.5167 12.2591L35.4727 18.3797L45.8781 28.9193Z" fill="#2E856E"/>
<path d="M18.1249 35.9438L12.0808 42.0644C11.3621 41.826 10.609 41.6645 9.81181 41.6645H7.35886C3.29432 41.6645 0 45.0005 0 49.1165C0 53.2325 3.29432 56.5685 7.35886 56.5685H8.16343V57.3833C8.16343 61.4993 11.4577 64.8353 15.5223 64.8353C19.5868 64.8353 22.8811 61.4993 22.8811 57.3833V54.8993C22.8811 54.092 22.7217 53.3294 22.4862 52.6016L28.5303 46.481L18.1249 35.9438Z" fill="#2E856E"/>
<path d="M56.6436 41.6647H54.1906C53.3934 41.6647 52.6404 41.8262 51.9217 42.0647L22.4887 12.2591C22.7242 11.5313 22.8836 10.7687 22.8836 9.9614V7.4774C22.8836 3.36141 19.5893 0.0253906 15.5247 0.0253906C11.4602 0.0253906 8.16588 3.36141 8.16588 7.4774V8.29215H7.35886C3.29432 8.29215 0 11.6282 0 15.7442C0 19.8602 3.29432 23.1962 7.35886 23.1962H9.81181C10.609 23.1962 11.3621 23.0347 12.0808 22.7962L41.5138 52.6018C41.2783 53.3296 41.1189 54.0922 41.1189 54.8995V57.3835C41.1189 61.4995 44.4132 64.8355 48.4777 64.8355C52.5423 64.8355 55.8366 61.4995 55.8366 57.3835V56.5687H56.6411C60.7057 56.5687 64 53.2327 64 49.1167C64 45.0007 60.7081 41.6647 56.6436 41.6647Z" fill="#2E856E"/>
</svg>
