<svg width="236" height="47" viewBox="0 0 236 47" fill="none" xmlns="http://www.w3.org/2000/svg">
<path d="M50.992 33V16.2H54.208L61.36 28.056H59.656L66.688 16.2H69.88L69.928 33H66.28L66.256 21.792H66.928L61.312 31.224H59.56L53.824 21.792H54.64V33H50.992ZM80.0579 33.192C78.5859 33.192 77.2899 32.904 76.1699 32.328C75.0659 31.752 74.2099 30.968 73.6019 29.976C72.9939 28.968 72.6899 27.824 72.6899 26.544C72.6899 25.248 72.9859 24.104 73.5779 23.112C74.1859 22.104 75.0099 21.32 76.0499 20.76C77.0899 20.184 78.2659 19.896 79.5779 19.896C80.8419 19.896 81.9779 20.168 82.9859 20.712C84.0099 21.24 84.8179 22.008 85.4099 23.016C86.0019 24.008 86.2979 25.2 86.2979 26.592C86.2979 26.736 86.2899 26.904 86.2739 27.096C86.2579 27.272 86.2419 27.44 86.2259 27.6H75.7379V25.416H84.2579L82.8179 26.064C82.8179 25.392 82.6819 24.808 82.4099 24.312C82.1379 23.816 81.7619 23.432 81.2819 23.16C80.8019 22.872 80.2419 22.728 79.6019 22.728C78.9619 22.728 78.3939 22.872 77.8979 23.16C77.4179 23.432 77.0419 23.824 76.7699 24.336C76.4979 24.832 76.3619 25.424 76.3619 26.112V26.688C76.3619 27.392 76.5139 28.016 76.8179 28.56C77.1379 29.088 77.5779 29.496 78.1379 29.784C78.7139 30.056 79.3859 30.192 80.1539 30.192C80.8419 30.192 81.4419 30.088 81.9539 29.88C82.4819 29.672 82.9619 29.36 83.3939 28.944L85.3859 31.104C84.7939 31.776 84.0499 32.296 83.1539 32.664C82.2579 33.016 81.2259 33.192 80.0579 33.192ZM88.7905 33V15.192H92.5345V33H88.7905ZM103.857 19.896C104.881 19.896 105.793 20.104 106.593 20.52C107.409 20.92 108.049 21.544 108.513 22.392C108.977 23.224 109.209 24.296 109.209 25.608V33H105.465V26.184C105.465 25.144 105.233 24.376 104.769 23.88C104.321 23.384 103.681 23.136 102.849 23.136C102.257 23.136 101.721 23.264 101.241 23.52C100.777 23.76 100.409 24.136 100.137 24.648C99.8813 25.16 99.7533 25.816 99.7533 26.616V33H96.0093V15.192H99.7533V23.664L98.9133 22.584C99.3773 21.72 100.041 21.056 100.905 20.592C101.769 20.128 102.753 19.896 103.857 19.896ZM118.841 33.192C117.465 33.192 116.241 32.904 115.169 32.328C114.113 31.752 113.273 30.968 112.649 29.976C112.041 28.968 111.737 27.824 111.737 26.544C111.737 25.248 112.041 24.104 112.649 23.112C113.273 22.104 114.113 21.32 115.169 20.76C116.241 20.184 117.465 19.896 118.841 19.896C120.201 19.896 121.417 20.184 122.489 20.76C123.561 21.32 124.401 22.096 125.009 23.088C125.617 24.08 125.921 25.232 125.921 26.544C125.921 27.824 125.617 28.968 125.009 29.976C124.401 30.968 123.561 31.752 122.489 32.328C121.417 32.904 120.201 33.192 118.841 33.192ZM118.841 30.12C119.465 30.12 120.025 29.976 120.521 29.688C121.017 29.4 121.409 28.992 121.697 28.464C121.985 27.92 122.129 27.28 122.129 26.544C122.129 25.792 121.985 25.152 121.697 24.624C121.409 24.096 121.017 23.688 120.521 23.4C120.025 23.112 119.465 22.968 118.841 22.968C118.217 22.968 117.657 23.112 117.161 23.4C116.665 23.688 116.265 24.096 115.961 24.624C115.673 25.152 115.529 25.792 115.529 26.544C115.529 27.28 115.673 27.92 115.961 28.464C116.265 28.992 116.665 29.4 117.161 29.688C117.657 29.976 118.217 30.12 118.841 30.12ZM128.423 33V20.088H131.999V23.736L131.495 22.68C131.879 21.768 132.495 21.08 133.343 20.616C134.191 20.136 135.223 19.896 136.439 19.896V23.352C136.279 23.336 136.135 23.328 136.007 23.328C135.879 23.312 135.743 23.304 135.599 23.304C134.575 23.304 133.743 23.6 133.103 24.192C132.479 24.768 132.167 25.672 132.167 26.904V33H128.423ZM143.612 33L151.1 16.2H154.94L162.452 33H158.372L152.228 18.168H153.764L147.596 33H143.612ZM147.356 29.4L148.388 26.448H157.028L158.084 29.4H147.356ZM180.467 19.896C181.491 19.896 182.395 20.104 183.179 20.52C183.979 20.92 184.603 21.544 185.051 22.392C185.515 23.224 185.747 24.296 185.747 25.608V33H182.003V26.184C182.003 25.144 181.787 24.376 181.355 23.88C180.923 23.384 180.315 23.136 179.531 23.136C178.987 23.136 178.499 23.264 178.067 23.52C177.635 23.76 177.299 24.128 177.059 24.624C176.819 25.12 176.699 25.752 176.699 26.52V33H172.955V26.184C172.955 25.144 172.739 24.376 172.307 23.88C171.891 23.384 171.291 23.136 170.507 23.136C169.963 23.136 169.475 23.264 169.043 23.52C168.611 23.76 168.275 24.128 168.035 24.624C167.795 25.12 167.675 25.752 167.675 26.52V33H163.931V20.088H167.507V23.616L166.835 22.584C167.283 21.704 167.915 21.04 168.731 20.592C169.563 20.128 170.507 19.896 171.563 19.896C172.747 19.896 173.779 20.2 174.659 20.808C175.555 21.4 176.147 22.312 176.435 23.544L175.115 23.184C175.547 22.176 176.235 21.376 177.179 20.784C178.139 20.192 179.235 19.896 180.467 19.896ZM189.103 33V20.088H192.847V33H189.103ZM190.975 18.288C190.287 18.288 189.727 18.088 189.295 17.688C188.863 17.288 188.647 16.792 188.647 16.2C188.647 15.608 188.863 15.112 189.295 14.712C189.727 14.312 190.287 14.112 190.975 14.112C191.663 14.112 192.223 14.304 192.655 14.688C193.087 15.056 193.303 15.536 193.303 16.128C193.303 16.752 193.087 17.272 192.655 17.688C192.239 18.088 191.679 18.288 190.975 18.288ZM202.394 37.848C201.178 37.848 200.002 37.696 198.866 37.392C197.746 37.104 196.81 36.664 196.058 36.072L197.546 33.384C198.09 33.832 198.778 34.184 199.61 34.44C200.458 34.712 201.29 34.848 202.106 34.848C203.434 34.848 204.394 34.552 204.986 33.96C205.594 33.368 205.898 32.488 205.898 31.32V29.376L206.138 26.136L206.09 22.872V20.088H209.642V30.84C209.642 33.24 209.018 35.008 207.77 36.144C206.522 37.28 204.73 37.848 202.394 37.848ZM201.818 32.376C200.618 32.376 199.53 32.12 198.554 31.608C197.594 31.08 196.818 30.352 196.226 29.424C195.65 28.48 195.362 27.384 195.362 26.136C195.362 24.872 195.65 23.776 196.226 22.848C196.818 21.904 197.594 21.176 198.554 20.664C199.53 20.152 200.618 19.896 201.818 19.896C202.906 19.896 203.866 20.12 204.698 20.568C205.53 21 206.178 21.68 206.642 22.608C207.106 23.52 207.338 24.696 207.338 26.136C207.338 27.56 207.106 28.736 206.642 29.664C206.178 30.576 205.53 31.256 204.698 31.704C203.866 32.152 202.906 32.376 201.818 32.376ZM202.562 29.304C203.218 29.304 203.802 29.176 204.314 28.92C204.826 28.648 205.226 28.272 205.514 27.792C205.802 27.312 205.946 26.76 205.946 26.136C205.946 25.496 205.802 24.944 205.514 24.48C205.226 24 204.826 23.632 204.314 23.376C203.802 23.104 203.218 22.968 202.562 22.968C201.906 22.968 201.322 23.104 200.81 23.376C200.298 23.632 199.89 24 199.586 24.48C199.298 24.944 199.154 25.496 199.154 26.136C199.154 26.76 199.298 27.312 199.586 27.792C199.89 28.272 200.298 28.648 200.81 28.92C201.322 29.176 201.906 29.304 202.562 29.304ZM219.27 33.192C217.894 33.192 216.67 32.904 215.598 32.328C214.542 31.752 213.702 30.968 213.078 29.976C212.47 28.968 212.166 27.824 212.166 26.544C212.166 25.248 212.47 24.104 213.078 23.112C213.702 22.104 214.542 21.32 215.598 20.76C216.67 20.184 217.894 19.896 219.27 19.896C220.63 19.896 221.846 20.184 222.918 20.76C223.99 21.32 224.83 22.096 225.438 23.088C226.046 24.08 226.35 25.232 226.35 26.544C226.35 27.824 226.046 28.968 225.438 29.976C224.83 30.968 223.99 31.752 222.918 32.328C221.846 32.904 220.63 33.192 219.27 33.192ZM219.27 30.12C219.894 30.12 220.454 29.976 220.95 29.688C221.446 29.4 221.838 28.992 222.126 28.464C222.414 27.92 222.558 27.28 222.558 26.544C222.558 25.792 222.414 25.152 222.126 24.624C221.838 24.096 221.446 23.688 220.95 23.4C220.454 23.112 219.894 22.968 219.27 22.968C218.646 22.968 218.086 23.112 217.59 23.4C217.094 23.688 216.694 24.096 216.39 24.624C216.102 25.152 215.958 25.792 215.958 26.544C215.958 27.28 216.102 27.92 216.39 28.464C216.694 28.992 217.094 29.4 217.59 29.688C218.086 29.976 218.646 30.12 219.27 30.12Z" fill="#008000"/>
<path d="M25.832 24.9261C25.4838 29.1109 28.9739 30.0797 31.8022 33.9805C36.0112 39.5772 40.178 38.5823 41.3611 35.065C42.4873 31.6845 39.38 28.7902 39.6763 25.0649C39.9726 21.3397 43.6973 18.3972 43.1736 14.9726C42.6499 11.5481 38.6287 10.5191 33.4122 16.0489C29.8778 19.8721 26.2988 20.7906 25.832 24.9261Z" fill="#6DBE45"/>
<path d="M19.7866 13.6831C22.4147 16.0576 25.8332 16.1949 27.3917 14.1164C28.9503 12.0379 28.0709 8.46561 25.3859 6.22784C22.7578 3.85332 19.3393 3.71605 17.7808 5.79455C16.2791 7.7363 17.1585 11.3086 19.7866 13.6831Z" fill="#008000"/>
<path d="M11.8606 24.0122C15.4643 24.7075 18.9766 23.2802 19.7003 20.5342C20.3671 17.9249 18.028 15.1894 14.3057 14.4449C10.702 13.7496 7.18967 15.1769 6.46602 17.9229C5.79917 20.5321 8.25686 23.3169 11.8606 24.0122Z" fill="#008000"/>
<path d="M12.4661 36.6555C16.0698 37.3508 19.5821 35.9235 20.3057 33.1775C20.9726 30.5683 18.6335 27.8327 14.9112 27.0882C11.3074 26.3929 7.79514 27.8202 7.07149 30.5662C6.40464 33.1755 8.86233 35.9602 12.4661 36.6555Z" fill="#008000"/>
</svg>
