<svg width="227" height="47" viewBox="0 0 227 47" fill="none" xmlns="http://www.w3.org/2000/svg">
<path d="M49.3816 33.1943V16.3943H52.5976L59.7496 28.2503H58.0456L65.0776 16.3943H68.2696L68.3176 33.1943H64.6696L64.6456 21.9863H65.3176L59.7016 31.4183H57.9496L52.2136 21.9863H53.0296V33.1943H49.3816ZM78.4475 33.3863C76.9755 33.3863 75.6795 33.0983 74.5595 32.5223C73.4555 31.9463 72.5995 31.1623 71.9915 30.1703C71.3835 29.1623 71.0795 28.0183 71.0795 26.7383C71.0795 25.4423 71.3755 24.2983 71.9675 23.3063C72.5755 22.2983 73.3995 21.5143 74.4395 20.9543C75.4795 20.3783 76.6555 20.0903 77.9675 20.0903C79.2315 20.0903 80.3675 20.3623 81.3755 20.9063C82.3995 21.4343 83.2075 22.2023 83.7995 23.2103C84.3915 24.2023 84.6875 25.3943 84.6875 26.7863C84.6875 26.9303 84.6795 27.0983 84.6635 27.2903C84.6475 27.4663 84.6315 27.6343 84.6155 27.7943H74.1275V25.6103H82.6475L81.2075 26.2583C81.2075 25.5863 81.0715 25.0023 80.7995 24.5063C80.5275 24.0103 80.1515 23.6263 79.6715 23.3543C79.1915 23.0663 78.6315 22.9223 77.9915 22.9223C77.3515 22.9223 76.7835 23.0663 76.2875 23.3543C75.8075 23.6263 75.4315 24.0183 75.1595 24.5303C74.8875 25.0263 74.7515 25.6183 74.7515 26.3063V26.8823C74.7515 27.5863 74.9035 28.2103 75.2075 28.7543C75.5275 29.2823 75.9675 29.6903 76.5275 29.9783C77.1035 30.2503 77.7755 30.3863 78.5435 30.3863C79.2315 30.3863 79.8315 30.2823 80.3435 30.0743C80.8715 29.8663 81.3515 29.5543 81.7835 29.1383L83.7755 31.2983C83.1835 31.9703 82.4395 32.4903 81.5435 32.8583C80.6475 33.2103 79.6155 33.3863 78.4475 33.3863ZM87.1801 33.1943V15.3863H90.9241V33.1943H87.1801ZM102.247 20.0903C103.271 20.0903 104.183 20.2983 104.983 20.7143C105.799 21.1143 106.439 21.7383 106.903 22.5863C107.367 23.4183 107.599 24.4903 107.599 25.8023V33.1943H103.855V26.3783C103.855 25.3383 103.623 24.5703 103.159 24.0743C102.711 23.5783 102.071 23.3303 101.239 23.3303C100.647 23.3303 100.111 23.4583 99.6309 23.7143C99.1669 23.9543 98.7989 24.3303 98.5269 24.8423C98.2709 25.3543 98.1429 26.0103 98.1429 26.8103V33.1943H94.3989V15.3863H98.1429V23.8583L97.3029 22.7783C97.7669 21.9143 98.4309 21.2503 99.2949 20.7863C100.159 20.3223 101.143 20.0903 102.247 20.0903ZM117.23 33.3863C115.854 33.3863 114.63 33.0983 113.558 32.5223C112.502 31.9463 111.662 31.1623 111.038 30.1703C110.43 29.1623 110.126 28.0183 110.126 26.7383C110.126 25.4423 110.43 24.2983 111.038 23.3063C111.662 22.2983 112.502 21.5143 113.558 20.9543C114.63 20.3783 115.854 20.0903 117.23 20.0903C118.59 20.0903 119.806 20.3783 120.878 20.9543C121.95 21.5143 122.79 22.2903 123.398 23.2823C124.006 24.2743 124.31 25.4263 124.31 26.7383C124.31 28.0183 124.006 29.1623 123.398 30.1703C122.79 31.1623 121.95 31.9463 120.878 32.5223C119.806 33.0983 118.59 33.3863 117.23 33.3863ZM117.23 30.3143C117.854 30.3143 118.414 30.1703 118.91 29.8823C119.406 29.5943 119.798 29.1863 120.086 28.6583C120.374 28.1143 120.518 27.4743 120.518 26.7383C120.518 25.9863 120.374 25.3463 120.086 24.8183C119.798 24.2903 119.406 23.8823 118.91 23.5943C118.414 23.3063 117.854 23.1623 117.23 23.1623C116.606 23.1623 116.046 23.3063 115.55 23.5943C115.054 23.8823 114.654 24.2903 114.35 24.8183C114.062 25.3463 113.918 25.9863 113.918 26.7383C113.918 27.4743 114.062 28.1143 114.35 28.6583C114.654 29.1863 115.054 29.5943 115.55 29.8823C116.046 30.1703 116.606 30.3143 117.23 30.3143ZM126.813 33.1943V20.2823H130.389V23.9303L129.885 22.8743C130.269 21.9623 130.885 21.2743 131.733 20.8103C132.581 20.3303 133.613 20.0903 134.829 20.0903V23.5463C134.669 23.5303 134.525 23.5223 134.397 23.5223C134.269 23.5063 134.133 23.4983 133.989 23.4983C132.965 23.4983 132.133 23.7943 131.493 24.3863C130.869 24.9623 130.557 25.8663 130.557 27.0983V33.1943H126.813ZM142.002 33.1943L149.49 16.3943H153.33L160.842 33.1943H156.762L150.618 18.3623H152.154L145.986 33.1943H142.002ZM145.746 29.5943L146.778 26.6423H155.418L156.474 29.5943H145.746ZM178.857 20.0903C179.881 20.0903 180.785 20.2983 181.569 20.7143C182.369 21.1143 182.993 21.7383 183.441 22.5863C183.905 23.4183 184.137 24.4903 184.137 25.8023V33.1943H180.393V26.3783C180.393 25.3383 180.177 24.5703 179.745 24.0743C179.313 23.5783 178.705 23.3303 177.921 23.3303C177.377 23.3303 176.889 23.4583 176.457 23.7143C176.025 23.9543 175.689 24.3223 175.449 24.8183C175.209 25.3143 175.089 25.9463 175.089 26.7143V33.1943H171.345V26.3783C171.345 25.3383 171.129 24.5703 170.697 24.0743C170.281 23.5783 169.681 23.3303 168.897 23.3303C168.353 23.3303 167.865 23.4583 167.433 23.7143C167.001 23.9543 166.665 24.3223 166.425 24.8183C166.185 25.3143 166.065 25.9463 166.065 26.7143V33.1943H162.321V20.2823H165.897V23.8103L165.225 22.7783C165.673 21.8983 166.305 21.2343 167.121 20.7863C167.953 20.3223 168.897 20.0903 169.953 20.0903C171.137 20.0903 172.169 20.3943 173.049 21.0023C173.945 21.5943 174.537 22.5063 174.825 23.7383L173.505 23.3783C173.937 22.3703 174.625 21.5703 175.569 20.9783C176.529 20.3863 177.625 20.0903 178.857 20.0903ZM187.493 33.1943V20.2823H191.237V33.1943H187.493ZM189.365 18.4823C188.677 18.4823 188.117 18.2823 187.685 17.8823C187.253 17.4823 187.037 16.9863 187.037 16.3943C187.037 15.8023 187.253 15.3063 187.685 14.9063C188.117 14.5063 188.677 14.3063 189.365 14.3063C190.053 14.3063 190.613 14.4983 191.045 14.8823C191.477 15.2503 191.693 15.7303 191.693 16.3223C191.693 16.9463 191.477 17.4663 191.045 17.8823C190.629 18.2823 190.069 18.4823 189.365 18.4823ZM200.783 38.0423C199.567 38.0423 198.391 37.8903 197.255 37.5863C196.135 37.2983 195.199 36.8583 194.447 36.2663L195.935 33.5783C196.479 34.0263 197.167 34.3783 197.999 34.6343C198.847 34.9063 199.679 35.0423 200.495 35.0423C201.823 35.0423 202.783 34.7463 203.375 34.1543C203.983 33.5623 204.287 32.6823 204.287 31.5143V29.5703L204.527 26.3303L204.479 23.0663V20.2823H208.031V31.0343C208.031 33.4343 207.407 35.2023 206.159 36.3383C204.911 37.4743 203.119 38.0423 200.783 38.0423ZM200.207 32.5703C199.007 32.5703 197.919 32.3143 196.943 31.8023C195.983 31.2743 195.207 30.5463 194.615 29.6183C194.039 28.6743 193.751 27.5783 193.751 26.3303C193.751 25.0663 194.039 23.9703 194.615 23.0423C195.207 22.0983 195.983 21.3703 196.943 20.8583C197.919 20.3463 199.007 20.0903 200.207 20.0903C201.295 20.0903 202.255 20.3143 203.087 20.7623C203.919 21.1943 204.567 21.8743 205.031 22.8023C205.495 23.7143 205.727 24.8903 205.727 26.3303C205.727 27.7543 205.495 28.9303 205.031 29.8583C204.567 30.7703 203.919 31.4503 203.087 31.8983C202.255 32.3463 201.295 32.5703 200.207 32.5703ZM200.951 29.4983C201.607 29.4983 202.191 29.3703 202.703 29.1143C203.215 28.8423 203.615 28.4663 203.903 27.9863C204.191 27.5063 204.335 26.9543 204.335 26.3303C204.335 25.6903 204.191 25.1383 203.903 24.6743C203.615 24.1943 203.215 23.8263 202.703 23.5703C202.191 23.2983 201.607 23.1623 200.951 23.1623C200.295 23.1623 199.711 23.2983 199.199 23.5703C198.687 23.8263 198.279 24.1943 197.975 24.6743C197.687 25.1383 197.543 25.6903 197.543 26.3303C197.543 26.9543 197.687 27.5063 197.975 27.9863C198.279 28.4663 198.687 28.8423 199.199 29.1143C199.711 29.3703 200.295 29.4983 200.951 29.4983ZM217.66 33.3863C216.284 33.3863 215.06 33.0983 213.988 32.5223C212.932 31.9463 212.092 31.1623 211.468 30.1703C210.86 29.1623 210.556 28.0183 210.556 26.7383C210.556 25.4423 210.86 24.2983 211.468 23.3063C212.092 22.2983 212.932 21.5143 213.988 20.9543C215.06 20.3783 216.284 20.0903 217.66 20.0903C219.02 20.0903 220.236 20.3783 221.308 20.9543C222.38 21.5143 223.22 22.2903 223.828 23.2823C224.436 24.2743 224.74 25.4263 224.74 26.7383C224.74 28.0183 224.436 29.1623 223.828 30.1703C223.22 31.1623 222.38 31.9463 221.308 32.5223C220.236 33.0983 219.02 33.3863 217.66 33.3863ZM217.66 30.3143C218.284 30.3143 218.844 30.1703 219.34 29.8823C219.836 29.5943 220.228 29.1863 220.516 28.6583C220.804 28.1143 220.948 27.4743 220.948 26.7383C220.948 25.9863 220.804 25.3463 220.516 24.8183C220.228 24.2903 219.836 23.8823 219.34 23.5943C218.844 23.3063 218.284 23.1623 217.66 23.1623C217.036 23.1623 216.476 23.3063 215.98 23.5943C215.484 23.8823 215.084 24.2903 214.78 24.8183C214.492 25.3463 214.348 25.9863 214.348 26.7383C214.348 27.4743 214.492 28.1143 214.78 28.6583C215.084 29.1863 215.484 29.5943 215.98 29.8823C216.476 30.1703 217.036 30.3143 217.66 30.3143Z" fill="#5CB85C"/>
<path d="M25.2217 24.1205C24.8735 28.3052 28.3636 29.274 31.1918 33.1748C35.4008 38.7716 39.5677 37.7766 40.7507 34.2593C41.877 30.8788 38.7696 27.9845 39.066 24.2593C39.3623 20.534 43.087 17.5915 42.5633 14.167C42.0396 10.7425 38.0184 9.71343 32.8019 15.2432C29.2674 19.0664 25.6884 19.9849 25.2217 24.1205Z" fill="#A9DFBF"/>
<path d="M19.1763 12.8774C21.8044 15.252 25.2229 15.3892 26.7814 13.3107C28.3399 11.2322 27.4605 7.65995 24.7756 5.42218C22.1475 3.04766 18.729 2.91038 17.1705 4.98888C15.6688 6.93063 16.5481 10.5029 19.1763 12.8774Z" fill="#5CB85C"/>
<path d="M11.2502 23.2065C14.854 23.9018 18.3663 22.4746 19.0899 19.7285C19.7568 17.1193 17.4176 14.3837 13.6953 13.6392C10.0916 12.944 6.57932 14.3712 5.85567 17.1172C5.18882 19.7265 7.64651 22.5113 11.2502 23.2065Z" fill="#5CB85C"/>
<path d="M11.8557 35.8499C15.4594 36.5451 18.9717 35.1179 19.6954 32.3719C20.3622 29.7626 18.0231 27.0271 14.3008 26.2825C10.6971 25.5873 7.18479 27.0145 6.46113 29.7605C5.79429 32.3698 8.25198 35.1546 11.8557 35.8499Z" fill="#5CB85C"/>
</svg>
