<svg width="265" height="18" viewBox="0 0 265 18" fill="none" xmlns="http://www.w3.org/2000/svg">
<path d="M33.5879 8.03092C33.9805 7.20528 34.0971 6.26135 33.9184 5.35537C33.7793 4.58485 33.4297 3.87548 32.9134 3.31666C32.3971 2.75785 31.7374 2.37461 31.0173 2.21524C30.4458 2.0784 29.8525 2.08344 29.2831 2.22998C28.7137 2.37652 28.1835 2.66065 27.7333 3.06045C26.6112 4.00874 25.2142 4.50957 23.7831 4.47658H10.2169C8.78582 4.50957 7.38878 4.00874 6.26668 3.06045C5.81651 2.66065 5.28628 2.37652 4.71689 2.22998C4.14751 2.08344 3.55419 2.0784 2.98269 2.21524C2.26261 2.37461 1.60285 2.75785 1.08659 3.31666C0.570324 3.87548 0.220653 4.58485 0.0816483 5.35537C-0.0970523 6.26135 0.0195463 7.20528 0.412146 8.03092C0.554439 8.32813 0.628633 8.65712 0.628633 8.99087C0.628633 9.32462 0.554439 9.6536 0.412146 9.95082C0.0203593 10.7767 -0.0962019 11.7204 0.0816483 12.6264C0.221014 13.3973 0.5707 14.1071 1.08682 14.6668C1.60293 15.2264 2.26249 15.611 2.98269 15.7721C3.55419 15.9089 4.14751 15.9039 4.71689 15.7574C5.28628 15.6108 5.81651 15.3267 6.26668 14.9269C7.38828 13.977 8.78525 13.4742 10.2169 13.5052H23.7831C25.2148 13.4742 26.6117 13.977 27.7333 14.9269C28.1835 15.3267 28.7137 15.6108 29.2831 15.7574C29.8525 15.9039 30.4458 15.9089 31.0173 15.7721C31.7375 15.611 32.3971 15.2264 32.9132 14.6668C33.4293 14.1071 33.779 13.3973 33.9184 12.6264C34.0962 11.7204 33.9796 10.7767 33.5879 9.95082C33.4456 9.6536 33.3714 9.32462 33.3714 8.99087C33.3714 8.65712 33.4456 8.32813 33.5879 8.03092V8.03092Z" fill="#B2E5D3"/>
<path d="M77.5879 8.03092C77.9805 7.20528 78.0971 6.26135 77.9184 5.35537C77.7793 4.58485 77.4297 3.87548 76.9134 3.31666C76.3971 2.75785 75.7374 2.37461 75.0173 2.21524C74.4458 2.0784 73.8525 2.08344 73.2831 2.22998C72.7137 2.37652 72.1835 2.66065 71.7333 3.06045C70.6112 4.00874 69.2142 4.50957 67.7831 4.47658H54.2169C52.7858 4.50957 51.3888 4.00874 50.2667 3.06045C49.8165 2.66065 49.2863 2.37652 48.7169 2.22998C48.1475 2.08344 47.5542 2.0784 46.9827 2.21524C46.2626 2.37461 45.6029 2.75785 45.0866 3.31666C44.5703 3.87548 44.2207 4.58485 44.0816 5.35537C43.9029 6.26135 44.0195 7.20528 44.4121 8.03092C44.5544 8.32813 44.6286 8.65712 44.6286 8.99087C44.6286 9.32462 44.5544 9.6536 44.4121 9.95082C44.0204 10.7767 43.9038 11.7204 44.0816 12.6264C44.221 13.3973 44.5707 14.1071 45.0868 14.6668C45.6029 15.2264 46.2625 15.611 46.9827 15.7721C47.5542 15.9089 48.1475 15.9039 48.7169 15.7574C49.2863 15.6108 49.8165 15.3267 50.2667 14.9269C51.3883 13.977 52.7852 13.4742 54.2169 13.5052H67.7831C69.2148 13.4742 70.6117 13.977 71.7333 14.9269C72.1835 15.3267 72.7137 15.6108 73.2831 15.7574C73.8525 15.9039 74.4458 15.9089 75.0173 15.7721C75.7375 15.611 76.3971 15.2264 76.9132 14.6668C77.4293 14.1071 77.779 13.3973 77.9184 12.6264C78.0962 11.7204 77.9796 10.7767 77.5879 9.95082C77.4456 9.6536 77.3714 9.32462 77.3714 8.99087C77.3714 8.65712 77.4456 8.32813 77.5879 8.03092V8.03092Z" fill="#A2D9CE"/>
<path d="M120.588 8.03092C120.98 7.20528 121.097 6.26135 120.918 5.35537C120.779 4.58485 120.43 3.87548 119.913 3.31666C119.397 2.75785 118.737 2.37461 118.017 2.21524C117.446 2.0784 116.852 2.08344 116.283 2.22998C115.714 2.37652 115.183 2.66065 114.733 3.06045C113.611 4.00874 112.214 4.50957 110.783 4.47658H97.2169C95.7858 4.50957 94.3888 4.00874 93.2667 3.06045C92.8165 2.66065 92.2863 2.37652 91.7169 2.22998C91.1475 2.08344 90.5542 2.0784 89.9827 2.21524C89.2626 2.37461 88.6029 2.75785 88.0866 3.31666C87.5703 3.87548 87.2207 4.58485 87.0816 5.35537C86.9029 6.26135 87.0195 7.20528 87.4121 8.03092C87.5544 8.32813 87.6286 8.65712 87.6286 8.99087C87.6286 9.32462 87.5544 9.6536 87.4121 9.95082C87.0204 10.7767 86.9038 11.7204 87.0816 12.6264C87.221 13.3973 87.5707 14.1071 88.0868 14.6668C88.6029 15.2264 89.2625 15.611 89.9827 15.7721C90.5542 15.9089 91.1475 15.9039 91.7169 15.7574C92.2863 15.6108 92.8165 15.3267 93.2667 14.9269C94.3883 13.977 95.7852 13.4742 97.2169 13.5052H110.783C112.215 13.4742 113.612 13.977 114.733 14.9269C115.183 15.3267 115.714 15.6108 116.283 15.7574C116.852 15.9039 117.446 15.9089 118.017 15.7721C118.738 15.611 119.397 15.2264 119.913 14.6668C120.429 14.1071 120.779 13.3973 120.918 12.6264C121.096 11.7204 120.98 10.7767 120.588 9.95082C120.446 9.6536 120.371 9.32462 120.371 8.99087C120.371 8.65712 120.446 8.32813 120.588 8.03092Z" fill="#A2D9CE"/>
<path d="M167.588 8.03092C167.98 7.20528 168.097 6.26135 167.918 5.35537C167.779 4.58485 167.43 3.87548 166.913 3.31666C166.397 2.75785 165.737 2.37461 165.017 2.21524C164.446 2.0784 163.852 2.08344 163.283 2.22998C162.714 2.37652 162.183 2.66065 161.733 3.06045C160.611 4.00874 159.214 4.50957 157.783 4.47658H144.217C142.786 4.50957 141.389 4.00874 140.267 3.06045C139.817 2.66065 139.286 2.37652 138.717 2.22998C138.148 2.08344 137.554 2.0784 136.983 2.21524C136.263 2.37461 135.603 2.75785 135.087 3.31666C134.57 3.87548 134.221 4.58485 134.082 5.35537C133.903 6.26135 134.02 7.20528 134.412 8.03092C134.554 8.32813 134.629 8.65712 134.629 8.99087C134.629 9.32462 134.554 9.6536 134.412 9.95082C134.02 10.7767 133.904 11.7204 134.082 12.6264C134.221 13.3973 134.571 14.1071 135.087 14.6668C135.603 15.2264 136.262 15.611 136.983 15.7721C137.554 15.9089 138.148 15.9039 138.717 15.7574C139.286 15.6108 139.817 15.3267 140.267 14.9269C141.388 13.977 142.785 13.4742 144.217 13.5052H157.783C159.215 13.4742 160.612 13.977 161.733 14.9269C162.183 15.3267 162.714 15.6108 163.283 15.7574C163.852 15.9039 164.446 15.9089 165.017 15.7721C165.738 15.611 166.397 15.2264 166.913 14.6668C167.429 14.1071 167.779 13.3973 167.918 12.6264C168.096 11.7204 167.98 10.7767 167.588 9.95082C167.446 9.6536 167.371 9.32462 167.371 8.99087C167.371 8.65712 167.446 8.32813 167.588 8.03092Z" fill="#A2D9CE"/>
<path d="M214.137 7.81575C213.962 8.18106 213.871 8.58365 213.871 8.99087C213.871 9.39806 213.962 9.80063 214.136 10.1659C214.482 10.8939 214.585 11.7282 214.428 12.5301L214.428 12.53L214.426 12.5374C214.303 13.2178 213.995 13.8401 213.546 14.3278C213.096 14.8152 212.526 15.146 211.908 15.2842L211.908 15.2841L211.901 15.2858C211.409 15.4037 210.898 15.3994 210.408 15.2731C209.917 15.1469 209.458 14.9014 209.065 14.553L209.065 14.5529L209.056 14.5453C207.846 13.5201 206.333 12.9729 204.778 13.0052H191.222C189.667 12.9729 188.154 13.5201 186.944 14.5453L186.943 14.5452L186.935 14.553C186.542 14.9014 186.083 15.1469 185.592 15.2731C185.102 15.3994 184.591 15.4037 184.099 15.2858L184.099 15.2858L184.092 15.2842C183.474 15.146 182.904 14.8152 182.454 14.3278C182.005 13.8401 181.697 13.2178 181.574 12.5374L181.574 12.5374L181.572 12.5301C181.415 11.7282 181.518 10.8938 181.864 10.1659C182.038 9.80058 182.129 9.39803 182.129 8.99087C182.129 8.58338 182.038 8.18052 181.863 7.81501L181.412 8.03092L181.864 7.8162C181.518 7.08856 181.414 6.25393 181.572 5.45213L181.572 5.45214L181.574 5.44414C181.696 4.76442 182.004 4.14273 182.454 3.65596C182.903 3.16953 183.474 2.84003 184.091 2.70343L184.091 2.7035L184.099 2.7015C184.591 2.58365 185.102 2.58798 185.592 2.7142C186.083 2.84046 186.542 3.08593 186.935 3.4343L186.935 3.43441L186.944 3.44234C188.155 4.46589 189.668 5.01096 191.223 4.97658H204.777C206.332 5.01096 207.845 4.46589 209.056 3.44234L209.056 3.44245L209.065 3.4343C209.458 3.08592 209.917 2.84046 210.408 2.7142C210.898 2.58798 211.409 2.58365 211.901 2.7015L211.901 2.70157L211.909 2.70343C212.526 2.84003 213.097 3.16953 213.546 3.65596C213.996 4.14273 214.304 4.76442 214.426 5.44414L214.426 5.44415L214.428 5.45213C214.586 6.25377 214.482 7.08821 214.137 7.81575ZM214.137 7.81575C214.137 7.81551 214.137 7.81525 214.137 7.81501L214.588 8.03092L214.136 7.8162C214.136 7.81605 214.136 7.8159 214.137 7.81575Z" stroke="#A2D9CE"/>
<path d="M234.614 13C234.521 13 234.441 12.972 234.376 12.916C234.32 12.8507 234.292 12.7713 234.292 12.678V10.662H229.756C229.663 10.662 229.583 10.634 229.518 10.578C229.462 10.5127 229.434 10.4333 229.434 10.34V9.78C229.434 9.64 229.485 9.5 229.588 9.36L233.788 3.438C233.835 3.36333 233.905 3.30733 233.998 3.27C234.091 3.22333 234.194 3.2 234.306 3.2H235.314C235.407 3.2 235.482 3.23267 235.538 3.298C235.603 3.354 235.636 3.42867 235.636 3.522V9.444H236.896C236.989 9.444 237.069 9.47667 237.134 9.542C237.199 9.598 237.232 9.67267 237.232 9.766V10.34C237.232 10.4333 237.199 10.5127 237.134 10.578C237.078 10.634 237.003 10.662 236.91 10.662H235.636V12.678C235.636 12.7713 235.603 12.8507 235.538 12.916C235.482 12.972 235.407 13 235.314 13H234.614ZM234.306 9.472V4.67L230.932 9.472H234.306ZM238.75 13C238.657 13 238.578 12.972 238.512 12.916C238.456 12.8507 238.428 12.7713 238.428 12.678V11.67C238.428 11.5767 238.456 11.502 238.512 11.446C238.578 11.3807 238.657 11.348 238.75 11.348H239.758C239.852 11.348 239.931 11.3807 239.996 11.446C240.062 11.502 240.094 11.5767 240.094 11.67V12.678C240.094 12.7713 240.062 12.8507 239.996 12.916C239.931 12.972 239.852 13 239.758 13H238.75ZM242.026 13C241.932 13 241.853 12.972 241.788 12.916C241.732 12.8507 241.704 12.7713 241.704 12.678V12.23C241.704 12.0153 241.82 11.81 242.054 11.614L245.022 8.646C245.74 8.04867 246.235 7.56333 246.506 7.19C246.776 6.80733 246.912 6.406 246.912 5.986C246.912 5.44467 246.758 5.02 246.45 4.712C246.151 4.404 245.712 4.25 245.134 4.25C244.592 4.25 244.158 4.41333 243.832 4.74C243.505 5.05733 243.304 5.482 243.23 6.014C243.211 6.126 243.164 6.21 243.09 6.266C243.024 6.31267 242.95 6.336 242.866 6.336H242.138C242.054 6.336 241.984 6.31267 241.928 6.266C241.872 6.21 241.844 6.14467 241.844 6.07C241.862 5.566 241.998 5.08533 242.25 4.628C242.502 4.16133 242.87 3.78333 243.356 3.494C243.85 3.19533 244.443 3.046 245.134 3.046C246.188 3.046 246.982 3.32133 247.514 3.872C248.055 4.41333 248.326 5.104 248.326 5.944C248.326 6.532 248.176 7.064 247.878 7.54C247.588 8.00667 247.136 8.51067 246.52 9.052L243.832 11.782H248.2C248.302 11.782 248.382 11.8147 248.438 11.88C248.503 11.936 248.536 12.0107 248.536 12.104V12.678C248.536 12.7713 248.503 12.8507 248.438 12.916C248.372 12.972 248.293 13 248.2 13H242.026ZM249.878 14.176C249.804 14.176 249.738 14.148 249.682 14.092C249.626 14.036 249.598 13.9707 249.598 13.896C249.598 13.8587 249.612 13.8027 249.64 13.728L254.428 2.248C254.503 2.08 254.624 1.996 254.792 1.996H255.338C255.413 1.996 255.478 2.024 255.534 2.08C255.59 2.136 255.618 2.20133 255.618 2.276C255.618 2.34133 255.609 2.39733 255.59 2.444L250.788 13.924C250.714 14.092 250.592 14.176 250.424 14.176H249.878ZM260.008 13.14C259.299 13.14 258.687 13.014 258.174 12.762C257.661 12.51 257.264 12.1787 256.984 11.768C256.713 11.3573 256.569 10.9187 256.55 10.452V10.424C256.55 10.3493 256.578 10.2887 256.634 10.242C256.69 10.1953 256.755 10.172 256.83 10.172H257.586C257.782 10.172 257.908 10.2747 257.964 10.48C258.095 10.9747 258.347 11.3433 258.72 11.586C259.093 11.8287 259.523 11.95 260.008 11.95C260.633 11.95 261.151 11.7633 261.562 11.39C261.982 11.0073 262.192 10.48 262.192 9.808C262.192 9.20133 261.982 8.71133 261.562 8.338C261.151 7.96467 260.633 7.778 260.008 7.778C259.672 7.778 259.401 7.82467 259.196 7.918C258.991 8.002 258.785 8.12333 258.58 8.282C258.468 8.366 258.37 8.43133 258.286 8.478C258.211 8.51533 258.127 8.534 258.034 8.534H257.306C257.222 8.534 257.147 8.506 257.082 8.45C257.017 8.38467 256.989 8.31 256.998 8.226L257.446 3.55C257.455 3.438 257.488 3.354 257.544 3.298C257.609 3.23267 257.693 3.2 257.796 3.2H262.682C262.775 3.2 262.85 3.23267 262.906 3.298C262.971 3.354 263.004 3.42867 263.004 3.522V4.068C263.004 4.16133 262.971 4.24067 262.906 4.306C262.85 4.362 262.775 4.39 262.682 4.39H258.65L258.384 7.148C258.888 6.83067 259.495 6.672 260.204 6.672C260.82 6.672 261.385 6.798 261.898 7.05C262.421 7.302 262.831 7.666 263.13 8.142C263.438 8.618 263.592 9.178 263.592 9.822C263.592 10.5127 263.438 11.11 263.13 11.614C262.831 12.1087 262.411 12.4867 261.87 12.748C261.329 13.0093 260.708 13.14 260.008 13.14Z" fill="white"/>
</svg>
