<svg width="269" height="18" viewBox="0 0 269 18" fill="none" xmlns="http://www.w3.org/2000/svg">
<path d="M33.5879 8.03043C33.9805 7.20479 34.0971 6.26086 33.9184 5.35488C33.7793 4.58436 33.4297 3.87499 32.9134 3.31618C32.3971 2.75736 31.7374 2.37412 31.0173 2.21476C30.4458 2.07791 29.8525 2.08295 29.2831 2.22949C28.7137 2.37603 28.1835 2.66016 27.7333 3.05996C26.6112 4.00825 25.2142 4.50908 23.7831 4.4761H10.2169C8.78582 4.50908 7.38878 4.00825 6.26668 3.05996C5.81651 2.66016 5.28628 2.37603 4.71689 2.22949C4.14751 2.08295 3.55419 2.07791 2.98269 2.21476C2.26261 2.37412 1.60285 2.75736 1.08659 3.31618C0.570324 3.87499 0.220653 4.58436 0.0816483 5.35488C-0.0970523 6.26086 0.0195463 7.20479 0.412146 8.03043C0.554439 8.32765 0.628633 8.65663 0.628633 8.99038C0.628633 9.32413 0.554439 9.65312 0.412146 9.95033C0.0203593 10.7762 -0.0962019 11.7199 0.0816483 12.6259C0.221014 13.3968 0.5707 14.1067 1.08682 14.6663C1.60293 15.226 2.26249 15.6105 2.98269 15.7716C3.55419 15.9085 4.14751 15.9034 4.71689 15.7569C5.28628 15.6103 5.81651 15.3262 6.26668 14.9264C7.38828 13.9765 8.78525 13.4737 10.2169 13.5047H23.7831C25.2148 13.4737 26.6117 13.9765 27.7333 14.9264C28.1835 15.3262 28.7137 15.6103 29.2831 15.7569C29.8525 15.9034 30.4458 15.9085 31.0173 15.7716C31.7375 15.6105 32.3971 15.226 32.9132 14.6663C33.4293 14.1067 33.779 13.3968 33.9184 12.6259C34.0962 11.7199 33.9796 10.7762 33.5879 9.95033C33.4456 9.65312 33.3714 9.32413 33.3714 8.99038C33.3714 8.65663 33.4456 8.32765 33.5879 8.03043V8.03043Z" fill="#A2D9CE"/>
<path d="M77.5879 8.03043C77.9805 7.20479 78.0971 6.26086 77.9184 5.35488C77.7793 4.58436 77.4297 3.87499 76.9134 3.31618C76.3971 2.75736 75.7374 2.37412 75.0173 2.21476C74.4458 2.07791 73.8525 2.08295 73.2831 2.22949C72.7137 2.37603 72.1835 2.66016 71.7333 3.05996C70.6112 4.00825 69.2142 4.50908 67.7831 4.4761H54.2169C52.7858 4.50908 51.3888 4.00825 50.2667 3.05996C49.8165 2.66016 49.2863 2.37603 48.7169 2.22949C48.1475 2.08295 47.5542 2.07791 46.9827 2.21476C46.2626 2.37412 45.6029 2.75736 45.0866 3.31618C44.5703 3.87499 44.2207 4.58436 44.0816 5.35488C43.9029 6.26086 44.0195 7.20479 44.4121 8.03043C44.5544 8.32765 44.6286 8.65663 44.6286 8.99038C44.6286 9.32413 44.5544 9.65312 44.4121 9.95033C44.0204 10.7762 43.9038 11.7199 44.0816 12.6259C44.221 13.3968 44.5707 14.1067 45.0868 14.6663C45.6029 15.226 46.2625 15.6105 46.9827 15.7716C47.5542 15.9085 48.1475 15.9034 48.7169 15.7569C49.2863 15.6103 49.8165 15.3262 50.2667 14.9264C51.3883 13.9765 52.7852 13.4737 54.2169 13.5047H67.7831C69.2148 13.4737 70.6117 13.9765 71.7333 14.9264C72.1835 15.3262 72.7137 15.6103 73.2831 15.7569C73.8525 15.9034 74.4458 15.9085 75.0173 15.7716C75.7375 15.6105 76.3971 15.226 76.9132 14.6663C77.4293 14.1067 77.779 13.3968 77.9184 12.6259C78.0962 11.7199 77.9796 10.7762 77.5879 9.95033C77.4456 9.65312 77.3714 9.32413 77.3714 8.99038C77.3714 8.65663 77.4456 8.32765 77.5879 8.03043V8.03043Z" fill="#A2D9CE"/>
<path d="M120.588 8.03043C120.98 7.20479 121.097 6.26086 120.918 5.35488C120.779 4.58436 120.43 3.87499 119.913 3.31618C119.397 2.75736 118.737 2.37412 118.017 2.21476C117.446 2.07791 116.852 2.08295 116.283 2.22949C115.714 2.37603 115.183 2.66016 114.733 3.05996C113.611 4.00825 112.214 4.50908 110.783 4.4761H97.2169C95.7858 4.50908 94.3888 4.00825 93.2667 3.05996C92.8165 2.66016 92.2863 2.37603 91.7169 2.22949C91.1475 2.08295 90.5542 2.07791 89.9827 2.21476C89.2626 2.37412 88.6029 2.75736 88.0866 3.31618C87.5703 3.87499 87.2207 4.58436 87.0816 5.35488C86.9029 6.26086 87.0195 7.20479 87.4121 8.03043C87.5544 8.32765 87.6286 8.65663 87.6286 8.99038C87.6286 9.32413 87.5544 9.65312 87.4121 9.95033C87.0204 10.7762 86.9038 11.7199 87.0816 12.6259C87.221 13.3968 87.5707 14.1067 88.0868 14.6663C88.6029 15.226 89.2625 15.6105 89.9827 15.7716C90.5542 15.9085 91.1475 15.9034 91.7169 15.7569C92.2863 15.6103 92.8165 15.3262 93.2667 14.9264C94.3883 13.9765 95.7852 13.4737 97.2169 13.5047H110.783C112.215 13.4737 113.612 13.9765 114.733 14.9264C115.183 15.3262 115.714 15.6103 116.283 15.7569C116.852 15.9034 117.446 15.9085 118.017 15.7716C118.738 15.6105 119.397 15.226 119.913 14.6663C120.429 14.1067 120.779 13.3968 120.918 12.6259C121.096 11.7199 120.98 10.7762 120.588 9.95033C120.446 9.65312 120.371 9.32413 120.371 8.99038C120.371 8.65663 120.446 8.32765 120.588 8.03043V8.03043Z" fill="#A2D9CE"/>
<path d="M167.588 8.03043C167.98 7.20479 168.097 6.26086 167.918 5.35488C167.779 4.58436 167.43 3.87499 166.913 3.31618C166.397 2.75736 165.737 2.37412 165.017 2.21476C164.446 2.07791 163.852 2.08295 163.283 2.22949C162.714 2.37603 162.183 2.66016 161.733 3.05996C160.611 4.00825 159.214 4.50908 157.783 4.4761H144.217C142.786 4.50908 141.389 4.00825 140.267 3.05996C139.817 2.66016 139.286 2.37603 138.717 2.22949C138.148 2.08295 137.554 2.07791 136.983 2.21476C136.263 2.37412 135.603 2.75736 135.087 3.31618C134.57 3.87499 134.221 4.58436 134.082 5.35488C133.903 6.26086 134.02 7.20479 134.412 8.03043C134.554 8.32765 134.629 8.65663 134.629 8.99038C134.629 9.32413 134.554 9.65312 134.412 9.95033C134.02 10.7762 133.904 11.7199 134.082 12.6259C134.221 13.3968 134.571 14.1067 135.087 14.6663C135.603 15.226 136.262 15.6105 136.983 15.7716C137.554 15.9085 138.148 15.9034 138.717 15.7569C139.286 15.6103 139.817 15.3262 140.267 14.9264C141.388 13.9765 142.785 13.4737 144.217 13.5047H157.783C159.215 13.4737 160.612 13.9765 161.733 14.9264C162.183 15.3262 162.714 15.6103 163.283 15.7569C163.852 15.9034 164.446 15.9085 165.017 15.7716C165.738 15.6105 166.397 15.226 166.913 14.6663C167.429 14.1067 167.779 13.3968 167.918 12.6259C168.096 11.7199 167.98 10.7762 167.588 9.95033C167.446 9.65312 167.371 9.32413 167.371 8.99038C167.371 8.65663 167.446 8.32765 167.588 8.03043V8.03043Z" fill="#A2D9CE"/>
<path d="M181.412 8.03043L181.864 7.81571C181.518 7.08807 181.414 6.25345 181.572 5.45164L181.572 5.45165L181.574 5.44365C181.696 4.76394 182.004 4.14224 182.454 3.65547C182.903 3.16904 183.474 2.83954 184.091 2.70294L184.091 2.70302L184.099 2.70101C184.591 2.58316 185.102 2.58749 185.592 2.71371C186.083 2.83997 186.542 3.08544 186.935 3.43381L186.935 3.43393L186.944 3.44185C188.155 4.4654 189.668 5.01047 191.223 4.9761H204.777C206.332 5.01047 207.845 4.4654 209.056 3.44185L209.056 3.44196L209.065 3.43381C209.458 3.08544 209.917 2.83997 210.408 2.71371C210.898 2.58749 211.409 2.58316 211.901 2.70101L211.901 2.70108L211.909 2.70294C212.526 2.83954 213.097 3.16904 213.546 3.65547C213.996 4.14224 214.304 4.76394 214.426 5.44365L214.426 5.44366L214.428 5.45164C214.586 6.25345 214.482 7.08807 214.136 7.81571C213.962 8.1809 213.871 8.58334 213.871 8.99038C213.871 9.39787 213.962 9.80074 214.137 10.1662L214.588 9.95033M181.412 8.03043L181.863 7.81452C182.038 8.18003 182.129 8.5829 182.129 8.99038C182.129 9.39754 182.038 9.80009 181.864 10.1654C181.518 10.8934 181.415 11.7277 181.572 12.5296L181.574 12.5369L181.574 12.5369C181.697 13.2173 182.005 13.8396 182.454 14.3273C182.904 14.8147 183.474 15.1455 184.092 15.2837L184.099 15.2853L184.099 15.2853C184.591 15.4032 185.102 15.3989 185.592 15.2726C186.083 15.1464 186.542 14.9009 186.935 14.5525L186.943 14.5447L186.944 14.5448C188.154 13.5196 189.667 12.9724 191.222 13.0047H204.778C206.333 12.9724 207.846 13.5196 209.056 14.5448L209.065 14.5524L209.065 14.5525C209.458 14.9009 209.917 15.1464 210.408 15.2726C210.898 15.3989 211.409 15.4032 211.901 15.2853L211.908 15.2836L211.908 15.2837C212.526 15.1455 213.096 14.8147 213.546 14.3273C213.995 13.8396 214.303 13.2173 214.426 12.5369L214.428 12.5296L214.428 12.5296C214.585 11.7274 214.482 10.8928 214.136 10.1646L214.588 9.95033M181.412 8.03043C181.02 7.20479 180.903 6.26086 181.082 5.35488L183.983 15.7716C183.262 15.6105 182.603 15.226 182.087 14.6663C181.571 14.1067 181.221 13.3968 181.082 12.6259C180.904 11.7199 181.02 10.7762 181.412 9.95033C181.554 9.65312 181.629 9.32413 181.629 8.99038C181.629 8.65663 181.554 8.32765 181.412 8.03043ZM214.588 9.95033C214.446 9.65312 214.371 9.32413 214.371 8.99038C214.371 8.65663 214.446 8.32765 214.588 8.03043L187.267 14.9264C188.388 13.9765 189.785 13.4737 191.217 13.5047H204.783C206.215 13.4737 207.612 13.9765 208.733 14.9264C209.183 15.3262 209.714 15.6103 210.283 15.7569C210.852 15.9034 211.446 15.9085 212.017 15.7716C212.738 15.6105 213.397 15.226 213.913 14.6663C214.429 14.1067 214.779 13.3968 214.918 12.6259C215.096 11.7199 214.98 10.7762 214.588 9.95033Z" fill="#A2D9CE" stroke="#A2D9CE"/>
<path d="M238.614 13C238.521 13 238.441 12.972 238.376 12.916C238.32 12.8507 238.292 12.7713 238.292 12.678V10.662H233.756C233.663 10.662 233.583 10.634 233.518 10.578C233.462 10.5127 233.434 10.4333 233.434 10.34V9.78C233.434 9.64 233.485 9.5 233.588 9.36L237.788 3.438C237.835 3.36333 237.905 3.30733 237.998 3.27C238.091 3.22333 238.194 3.2 238.306 3.2H239.314C239.407 3.2 239.482 3.23267 239.538 3.298C239.603 3.354 239.636 3.42867 239.636 3.522V9.444H240.896C240.989 9.444 241.069 9.47667 241.134 9.542C241.199 9.598 241.232 9.67267 241.232 9.766V10.34C241.232 10.4333 241.199 10.5127 241.134 10.578C241.078 10.634 241.003 10.662 240.91 10.662H239.636V12.678C239.636 12.7713 239.603 12.8507 239.538 12.916C239.482 12.972 239.407 13 239.314 13H238.614ZM238.306 9.472V4.67L234.932 9.472H238.306ZM242.75 13C242.657 13 242.578 12.972 242.512 12.916C242.456 12.8507 242.428 12.7713 242.428 12.678V11.67C242.428 11.5767 242.456 11.502 242.512 11.446C242.578 11.3807 242.657 11.348 242.75 11.348H243.758C243.852 11.348 243.931 11.3807 243.996 11.446C244.062 11.502 244.094 11.5767 244.094 11.67V12.678C244.094 12.7713 244.062 12.8507 243.996 12.916C243.931 12.972 243.852 13 243.758 13H242.75ZM246.026 13C245.932 13 245.853 12.972 245.788 12.916C245.732 12.8507 245.704 12.7713 245.704 12.678V12.23C245.704 12.0153 245.82 11.81 246.054 11.614L249.022 8.646C249.74 8.04867 250.235 7.56333 250.506 7.19C250.776 6.80733 250.912 6.406 250.912 5.986C250.912 5.44467 250.758 5.02 250.45 4.712C250.151 4.404 249.712 4.25 249.134 4.25C248.592 4.25 248.158 4.41333 247.832 4.74C247.505 5.05733 247.304 5.482 247.23 6.014C247.211 6.126 247.164 6.21 247.09 6.266C247.024 6.31267 246.95 6.336 246.866 6.336H246.138C246.054 6.336 245.984 6.31267 245.928 6.266C245.872 6.21 245.844 6.14467 245.844 6.07C245.862 5.566 245.998 5.08533 246.25 4.628C246.502 4.16133 246.87 3.78333 247.356 3.494C247.85 3.19533 248.443 3.046 249.134 3.046C250.188 3.046 250.982 3.32133 251.514 3.872C252.055 4.41333 252.326 5.104 252.326 5.944C252.326 6.532 252.176 7.064 251.878 7.54C251.588 8.00667 251.136 8.51067 250.52 9.052L247.832 11.782H252.2C252.302 11.782 252.382 11.8147 252.438 11.88C252.503 11.936 252.536 12.0107 252.536 12.104V12.678C252.536 12.7713 252.503 12.8507 252.438 12.916C252.372 12.972 252.293 13 252.2 13H246.026ZM253.878 14.176C253.804 14.176 253.738 14.148 253.682 14.092C253.626 14.036 253.598 13.9707 253.598 13.896C253.598 13.8587 253.612 13.8027 253.64 13.728L258.428 2.248C258.503 2.08 258.624 1.996 258.792 1.996H259.338C259.413 1.996 259.478 2.024 259.534 2.08C259.59 2.136 259.618 2.20133 259.618 2.276C259.618 2.34133 259.609 2.39733 259.59 2.444L254.788 13.924C254.714 14.092 254.592 14.176 254.424 14.176H253.878ZM264.008 13.14C263.299 13.14 262.687 13.014 262.174 12.762C261.661 12.51 261.264 12.1787 260.984 11.768C260.713 11.3573 260.569 10.9187 260.55 10.452V10.424C260.55 10.3493 260.578 10.2887 260.634 10.242C260.69 10.1953 260.755 10.172 260.83 10.172H261.586C261.782 10.172 261.908 10.2747 261.964 10.48C262.095 10.9747 262.347 11.3433 262.72 11.586C263.093 11.8287 263.523 11.95 264.008 11.95C264.633 11.95 265.151 11.7633 265.562 11.39C265.982 11.0073 266.192 10.48 266.192 9.808C266.192 9.20133 265.982 8.71133 265.562 8.338C265.151 7.96467 264.633 7.778 264.008 7.778C263.672 7.778 263.401 7.82467 263.196 7.918C262.991 8.002 262.785 8.12333 262.58 8.282C262.468 8.366 262.37 8.43133 262.286 8.478C262.211 8.51533 262.127 8.534 262.034 8.534H261.306C261.222 8.534 261.147 8.506 261.082 8.45C261.017 8.38467 260.989 8.31 260.998 8.226L261.446 3.55C261.455 3.438 261.488 3.354 261.544 3.298C261.609 3.23267 261.693 3.2 261.796 3.2H266.682C266.775 3.2 266.85 3.23267 266.906 3.298C266.971 3.354 267.004 3.42867 267.004 3.522V4.068C267.004 4.16133 266.971 4.24067 266.906 4.306C266.85 4.362 266.775 4.39 266.682 4.39H262.65L262.384 7.148C262.888 6.83067 263.495 6.672 264.204 6.672C264.82 6.672 265.385 6.798 265.898 7.05C266.421 7.302 266.831 7.666 267.13 8.142C267.438 8.618 267.592 9.178 267.592 9.822C267.592 10.5127 267.438 11.11 267.13 11.614C266.831 12.1087 266.411 12.4867 265.87 12.748C265.329 13.0093 264.708 13.14 264.008 13.14Z" fill="white"/>
</svg>
