<svg width="93" height="93" viewBox="0 0 93 93" fill="none" xmlns="http://www.w3.org/2000/svg">
<path d="M64.6454 40.526C73.0016 47.2109 82.1933 33.0054 80.5221 24.6493C85.5358 9.60821 68.8235 3.7589 62.9742 17.9644C55.4536 23.8137 54.618 40.526 64.6454 40.526ZM65.481 38.0191C56.2893 38.8548 59.6317 23.8137 64.6454 19.6356V18.8C69.6591 6.26575 82.1933 11.2794 77.1796 23.8137V24.6493C78.8509 31.3342 72.166 44.7041 64.6454 38.0191H65.481Z" fill="#008000"/>
<path d="M37.0702 30.4985C45.4264 37.1834 54.6182 22.9779 52.9469 14.6218C57.9606 -0.419287 41.2483 -6.2686 35.399 8.77248C27.8784 14.6218 27.0428 31.3341 37.0702 31.3341V30.4985ZM37.9058 27.9916C28.7141 28.8273 32.0565 13.7862 37.0702 9.6081V8.77248C42.0839 -3.76175 54.6182 1.25194 49.6045 13.7862V14.6218C51.2757 21.3067 44.5908 34.6766 37.0702 27.9916H37.9058Z" fill="#008000"/>
<path d="M78.8509 68.9367C86.3714 73.9503 95.5632 66.4298 92.2207 58.0737C95.5632 47.2107 79.6865 41.3613 74.6728 52.2243C67.1523 56.4024 69.6591 68.101 78.0153 68.9367H78.8509ZM79.6865 66.4298H78.8509C72.166 65.5942 70.4947 56.4024 76.344 53.8956L77.1797 53.06C80.5221 44.7038 93.0564 49.7175 89.7139 58.0737V58.9093C92.2207 64.7586 85.5358 71.4435 79.6865 67.2654V66.4298Z" fill="#008000"/>
<path d="M8.65949 43.8683C16.18 48.882 25.3718 41.3614 22.0293 33.0053C25.3718 22.1423 9.49511 16.293 4.48141 27.156C-3.03913 31.3341 -0.532283 43.0327 7.82387 43.8683H8.65949ZM9.4951 41.3614H8.65949C1.97456 40.5258 0.303333 31.3341 6.15264 28.8272L6.98826 27.9916C10.3307 19.6354 22.865 24.6491 19.5225 33.0053V33.8409C22.0293 39.6902 15.3444 46.3751 9.4951 42.1971V41.3614Z" fill="#008000"/>
<path d="M65.481 66.4299C73.8372 40.5258 30.3852 24.6491 20.3578 49.7175C-5.54629 63.923 12.0016 81.4709 31.2208 88.9915C50.44 95.6764 76.344 94.0052 65.481 66.4299ZM62.9742 66.4299V67.2655C73.0016 92.3339 49.6043 94.0052 32.0564 87.3202C14.5085 80.6353 -3.03944 65.5942 21.1934 52.2244L22.029 51.3888C31.2208 27.9915 70.4947 43.0326 62.9742 66.4299Z" fill="#008000"/>
</svg>
