<svg width="107" height="75" viewBox="0 0 107 75" fill="none" xmlns="http://www.w3.org/2000/svg">
<path d="M74.8756 46.3167C72.3757 45.9097 69.9027 47.2566 68.858 49.5922C68.6554 50.0453 68.5177 50.5148 68.4385 50.9893C71.0186 49.7162 73.2737 48.1815 75.2204 46.3728L74.8756 46.3167Z" fill="#008000"/>
<path d="M77.1951 23.6913C81.8824 20.6027 83.2099 14.2514 80.1603 9.50512C77.1106 4.75889 70.8385 3.41508 66.1512 6.50363C61.4639 9.59218 60.1363 15.9435 63.186 20.6898C66.2357 25.436 72.5077 26.7798 77.1951 23.6913Z" fill="#008000"/>
<path d="M95.7813 26.2798C91.4021 20.7885 85.4542 20.7256 82.1688 22.9655C78.8842 25.204 79.1242 30.8917 81.8672 34.7106C81.9919 34.9212 82.1242 35.1404 82.2538 35.3574C83.1991 32.4529 83.3323 30.3448 83.3337 30.3156C83.43 27.8514 85.4038 25.9279 87.8281 25.9279C87.8844 25.9279 87.9406 25.9288 87.9969 25.9311C90.4771 26.0231 92.4207 28.1413 92.3293 30.6533V30.6611L92.3266 30.7017C92.2528 32.1083 91.7775 37.1647 88.7626 43.1737C88.488 43.7253 88.1644 44.3297 87.793 44.9696C88.425 46.1922 89.0326 47.4411 89.5867 48.7096L85.7477 48.0852C83.1509 51.6077 79.1786 55.6039 73.2627 58.7349L90.4262 73.1214C91.4759 74.0016 92.747 74.4305 94.011 74.4305C95.6291 74.4305 97.2352 73.7267 98.3483 72.3661C100.329 69.9416 99.9953 66.3502 97.6016 64.3442L93.4744 60.8831L94.8095 61.101C95.2231 61.168 95.6323 61.1844 96.0342 61.1607C97.0038 61.2077 98.144 60.8645 99.5461 60.3699C103.441 58.9951 107.858 56.5716 106.709 49.186C104.393 39.2646 101.758 33.8664 95.7813 26.2798Z" fill="#008000"/>
<path d="M87.9609 42.76C91.2018 36.301 91.4111 30.9552 91.4305 30.6193C91.5034 28.6064 89.9527 26.9153 87.965 26.8419C85.9804 26.7672 84.3127 28.3338 84.2349 30.3421L84.2344 30.3417C84.2286 30.5737 83.9283 34.9701 81.2983 39.9243C78.6403 44.8859 73.8619 50.4606 64.1883 53.7219C62.2996 54.3528 61.2734 56.4144 61.8977 58.3275C62.3969 59.86 63.8048 60.8318 65.3168 60.8318C65.6908 60.8318 66.0712 60.772 66.4457 60.6472C78.273 56.7276 84.7507 49.2098 87.9609 42.76Z" fill="#008000"/>
<path d="M40.533 60.1042C42.1696 60.4188 44.1394 60.9384 44.6601 61.4968C46.0623 62.995 46.7474 66.0896 48.5654 66.3065C49.8356 66.4579 50.2817 66.4301 51.8553 65.4017C53.4087 64.3844 51.9336 60.4233 51.5627 58.9013C51.037 56.7417 52.2906 54.3696 52.3099 54.2246C52.3257 54.1043 53.4055 51.8111 56.5271 52.6817C57.6173 52.988 56.979 50.9473 55.2717 49.9277C53.2417 48.717 51.7729 49.2813 50.2889 50.4601C47.4234 48.2393 42.9344 48.6728 40.3822 49.64C39.9744 51.3234 39.8164 52.952 39.8164 54.4503C39.8151 56.728 40.1752 58.7031 40.533 60.1042ZM47.8087 55.3131C48.4758 54.8523 49.386 55.0269 49.8415 55.7024C50.2961 56.3784 50.1237 57.3005 49.4566 57.7604C48.7877 58.2213 47.8785 58.0471 47.423 57.3712C46.9688 56.6956 47.1403 55.7735 47.8087 55.3131Z" fill="#008000"/>
<path d="M38.5431 49.5885C37.8787 49.598 37.2459 49.5784 36.6423 49.531C36.4307 49.4777 36.2119 49.4444 35.9828 49.4563C35.9689 49.4572 35.9563 49.4617 35.9423 49.4627C26.7603 48.4065 24.2608 41.3728 13.5336 48.6723C10.2936 47.7082 6.43069 45.6356 3.50491 41.2128C2.91345 40.3235 1.72289 40.0906 0.847403 40.6895C-0.0325804 41.2871 -0.264842 42.4918 0.328866 43.3816C3.11195 47.5459 6.55132 49.9855 9.77868 51.4145C9.74087 51.4947 9.70125 51.59 9.66164 51.6811C8.83432 52.9415 8.1866 54.602 7.76529 56.815C7.70633 57.1382 5.07943 74.1146 9.20522 74.1146C13.331 74.1146 14.464 61.2724 16.7677 59.6283C17.0922 59.6575 23.2125 66.1515 28.4402 65.3351C29.665 65.1428 31.3232 64.377 32.7051 63.5625L34.9665 72.7299C35.2203 73.7586 36.1282 74.4565 37.1464 74.4565C37.2576 74.4565 37.3706 74.4483 37.4835 74.431C38.6318 74.2564 39.4587 73.2326 39.3979 72.058L38.8109 60.6434C38.4157 59.1205 38.0169 56.9672 38.0151 54.4502C38.0156 52.9374 38.1628 51.2955 38.5431 49.5885Z" fill="#008000"/>
<path d="M58.6257 72.0084H58.0577L56.8982 68.3701H43.9082L42.7487 72.0084H42.1797C41.7224 72.0084 41.3506 72.3845 41.3506 72.8485C41.3506 73.3121 41.7224 73.6881 42.1797 73.6881H58.6257C59.083 73.6881 59.4548 73.3121 59.4548 72.8485C59.4548 72.3845 59.0826 72.0084 58.6257 72.0084Z" fill="#008000"/>
</svg>
